<svg width="299" height="141" viewBox="0 0 299 141" fill="none" xmlns="http://www.w3.org/2000/svg">
<g filter="url(#filter0_d)">
<path fill-rule="evenodd" clip-rule="evenodd" d="M144.235 2.31796C177.748 0.850174 212.406 4.50024 239.57 12.5206C266.649 20.5156 284.154 32.8204 292.007 45.9475C299.455 58.3984 291.845 71.041 281.852 83.2009C271.906 95.3047 261.173 108.224 234.939 115.393C209.031 122.473 174.981 118.382 144.235 120.808C102.615 124.094 58.0597 141.875 23.3233 132.096C-11.2056 122.376 11.5132 99.7584 9.36878 82.8418C7.86321 70.9648 3.05191 59.3101 12.6709 48.0632C22.1656 36.9616 40.8 27.9405 62.8934 20.2586C86.8682 11.9224 112.715 3.69846 144.235 2.31796Z" fill="#EBDAFF"/>
</g>
<defs>
<filter id="filter0_d" x="0" y="0" width="299" height="141" filterUnits="userSpaceOnUse" color-interpolation-filters="sRGB">
<feFlood flood-opacity="0" result="BackgroundImageFix"/>
<feColorMatrix in="SourceAlpha" type="matrix" values="0 0 0 0 0 0 0 0 0 0 0 0 0 0 0 0 0 0 127 0" result="hardAlpha"/>
<feOffset dy="2"/>
<feGaussianBlur stdDeviation="2"/>
<feColorMatrix type="matrix" values="0 0 0 0 0 0 0 0 0 0 0 0 0 0 0 0 0 0 0.25 0"/>
<feBlend mode="normal" in2="BackgroundImageFix" result="effect1_dropShadow"/>
<feBlend mode="normal" in="SourceGraphic" in2="effect1_dropShadow" result="shape"/>
</filter>
</defs>
</svg>
