<svg width="67" height="23" viewBox="0 0 67 23" fill="none" xmlns="http://www.w3.org/2000/svg">
<path d="M7.48666 22.9564C4.85888 22.9564 2.95493 22.1404 1.77544 20.5077C0.591608 18.875 0 16.5077 0 13.4051V0.988484H3.20325V13.4628C3.20325 15.7622 3.53661 17.4071 4.20271 18.3987C4.86881 19.3942 5.96387 19.8923 7.48666 19.8923C9.00944 19.8923 10.0983 19.4051 10.752 18.4308C11.41 17.4564 11.739 15.8007 11.739 13.4628V0.988484H14.9671V13.4051C14.9671 16.4904 14.3445 18.8539 13.0986 20.4949C11.8489 22.1359 9.97786 22.9564 7.48666 22.9564ZM22.6412 22.6616V0.988484H25.8383V22.6616H22.6412ZM33.7682 22.6616V0.988484H36.9963V19.7128H43.0179V22.6616H33.7682ZM56.577 0.956421H56.8874L67 22.6616H63.3125L61.5123 18.418H51.8901L50.0898 22.6616H46.5203L56.577 0.956421ZM56.7198 7.23848L55.4596 10.1872L53.1751 15.4372H60.2583L58.0048 10.2192L56.7757 7.23848H56.7198Z" fill="#6C63FF"/>
</svg>
