<svg width="375" height="367" viewBox="0 0 375 367" fill="none" xmlns="http://www.w3.org/2000/svg">
<path fill-rule="evenodd" clip-rule="evenodd" d="M194.988 0.615599C248.517 -2.11714 305.519 3.55105 347.569 31.8081C388.888 59.5742 409.265 104.771 416.014 149.143C422.006 188.537 399.418 224.813 382.562 261.866C366.758 296.608 358.618 338.182 321.185 357.597C284.383 376.685 238.05 361.132 194.988 359.154C154.859 357.312 115.214 359.998 78.3329 346.445C33.433 329.947 -17.3622 312.196 -36.6737 274.029C-56.3978 235.047 -36.9782 190.73 -20.7607 150.599C-4.79359 111.088 17.1129 73.1979 55.1795 46.7348C94.834 19.1679 143.829 3.22728 194.988 0.615599Z" fill="#EBDAFF"/>
</svg>
