<svg width="381" height="400" viewBox="0 0 381 323" fill="none" xmlns="http://www.w3.org/2000/svg">
<g clip-path="url(#clip0)">
<path d="M152.457 66.9828H151.067V24.5557C151.067 21.331 150.497 18.1379 149.39 15.1586C148.282 12.1794 146.659 9.4724 144.613 7.1922C142.566 4.91199 140.137 3.10324 137.463 1.8692C134.789 0.635157 131.924 2.73221e-06 129.03 0H48.3603C42.5156 -1.24152e-05 36.9103 2.58708 32.7775 7.19214C28.6447 11.7972 26.3229 18.043 26.3229 24.5556V257.314C26.3229 260.539 26.8929 263.732 28.0004 266.711C29.1079 269.69 30.7311 272.397 32.7775 274.677C34.8238 276.958 37.2532 278.766 39.9269 280C42.6006 281.234 45.4663 281.87 48.3603 281.87H129.03C134.874 281.87 140.48 279.283 144.613 274.678C148.745 270.072 151.067 263.827 151.067 257.314V97.1831H152.457V66.9828Z" fill="#3F3D56"/>
<path d="M129.919 6.38855H119.389C119.873 7.71144 120.058 9.14672 119.927 10.568C119.796 11.9892 119.354 13.3528 118.639 14.5386C117.923 15.7244 116.958 16.696 115.826 17.3678C114.694 18.0397 113.432 18.3911 112.15 18.3913H65.9352C64.6531 18.3911 63.3906 18.0397 62.259 17.3678C61.1274 16.696 60.1615 15.7244 59.4463 14.5386C58.7311 13.3528 58.2886 11.9892 58.1578 10.568C58.027 9.14673 58.2118 7.71144 58.6961 6.38855H48.861C46.6998 6.38855 44.5598 6.86287 42.5631 7.78444C40.5664 8.706 38.7521 10.0568 37.2239 11.7596C35.6957 13.4624 34.4835 15.484 33.6564 17.7088C32.8294 19.9337 32.4037 22.3183 32.4037 24.7264V257.143C32.4037 259.551 32.8294 261.936 33.6564 264.161C34.4835 266.386 35.6957 268.407 37.2239 270.11C38.7521 271.813 40.5664 273.164 42.563 274.085C44.5597 275.007 46.6998 275.481 48.861 275.481H129.919C132.08 275.481 134.22 275.007 136.217 274.085C138.214 273.164 140.028 271.813 141.556 270.11C143.084 268.407 144.296 266.386 145.123 264.161C145.951 261.936 146.376 259.551 146.376 257.143V24.7264C146.376 22.3183 145.951 19.9337 145.123 17.7088C144.296 15.484 143.084 13.4624 141.556 11.7596C140.028 10.0568 138.214 8.706 136.217 7.78444C134.22 6.86287 132.08 6.38855 129.919 6.38855Z" fill="white"/>
<path d="M178.313 281.91H0.466789C0.342989 281.91 0.224259 281.855 0.136719 281.757C0.049179 281.66 0 281.528 0 281.39C0 281.252 0.049179 281.119 0.136719 281.022C0.224259 280.924 0.342989 280.87 0.466789 280.87H178.313C178.437 280.87 178.556 280.924 178.643 281.022C178.731 281.119 178.78 281.252 178.78 281.39C178.78 281.528 178.731 281.66 178.643 281.757C178.556 281.855 178.437 281.91 178.313 281.91Z" fill="#CBCBCB"/>
<path d="M89.3899 179.798C111.16 179.798 128.808 160.133 128.808 135.875C128.808 111.617 111.16 91.9522 89.3899 91.9522C67.6197 91.9522 49.9714 111.617 49.9714 135.875C49.9714 160.133 67.6197 179.798 89.3899 179.798Z" fill="#6C63FF"/>
<path d="M85.4838 152.63C84.597 152.632 83.7338 152.312 83.0243 151.72L82.9803 151.683L73.7164 143.786C73.2874 143.42 72.9273 142.963 72.6568 142.441C72.3863 141.92 72.2106 141.344 72.1398 140.747C72.069 140.149 72.1045 139.543 72.2442 138.961C72.3839 138.379 72.6251 137.833 72.954 137.355C73.2829 136.877 73.6932 136.476 74.1612 136.174C74.6293 135.873 75.1461 135.677 75.6821 135.598C76.218 135.519 76.7627 135.559 77.285 135.715C77.8072 135.87 78.2969 136.139 78.7259 136.506L84.7263 141.633L98.9056 121.02C99.2344 120.543 99.6444 120.142 100.112 119.84C100.58 119.539 101.097 119.343 101.633 119.264C102.168 119.186 102.713 119.225 103.235 119.381C103.757 119.536 104.246 119.805 104.675 120.171L104.676 120.172L104.588 120.308L104.679 120.172C105.544 120.913 106.11 122.006 106.253 123.212C106.395 124.417 106.103 125.637 105.44 126.602L88.762 150.836C88.3761 151.394 87.88 151.846 87.3121 152.157C86.7443 152.467 86.1199 152.627 85.4875 152.625L85.4838 152.63Z" fill="white"/>
<path d="M250.613 264.599C251.093 263.735 251.657 262.934 252.296 262.209C252.56 261.905 252.838 261.618 253.124 261.338C254.867 259.61 256.992 258.43 259.28 257.92C261.568 257.409 263.936 257.587 266.142 258.435C268.348 259.283 270.311 260.77 271.83 262.744C273.349 264.717 274.369 267.106 274.784 269.664C276.709 261.731 271.698 253.917 266.659 247.915C261.618 241.915 255.856 235.332 255.885 227.111C255.899 222.536 257.908 218.454 260.94 215.428C261.034 215.337 261.127 215.245 261.223 215.157C264.888 211.656 269.603 209.825 274.427 210.029C283.389 210.564 291.214 217.276 296.649 225.236C305.396 238.046 309.229 256.026 303.105 270.608C297.719 283.432 286.231 291.048 274.507 297.17C272.87 298.025 271.236 298.855 269.606 299.658C269.595 299.661 269.583 299.67 269.572 299.673C269.494 299.712 269.415 299.75 269.342 299.79C269.005 299.955 268.669 300.121 268.335 300.284L268.489 300.396L268.972 300.744C268.804 300.631 268.639 300.522 268.472 300.409C268.422 300.375 268.37 300.343 268.32 300.309C262.562 296.459 256.724 292.386 252.745 286.376C248.62 280.135 246.961 271.196 250.613 264.599Z" fill="#F1F1F1"/>
<path d="M289.031 250.107C290.306 253.339 291.152 256.761 291.54 260.265C291.846 263.389 291.731 266.547 291.199 269.633C290.056 275.976 287.562 281.92 283.928 286.965C281.186 290.796 278.021 294.224 274.507 297.17C272.87 298.025 271.236 298.855 269.606 299.658C269.595 299.661 269.583 299.67 269.572 299.673C269.494 299.712 269.415 299.75 269.342 299.79C269.005 299.955 268.669 300.121 268.335 300.284L268.489 300.396L268.971 300.744C268.804 300.631 268.639 300.522 268.472 300.409C268.422 300.375 268.37 300.343 268.32 300.309C269.587 295.37 269.774 290.164 268.863 285.128C267.953 280.092 265.973 275.373 263.089 271.365C260.189 267.408 256.491 264.271 252.296 262.209C252.56 261.905 252.838 261.618 253.124 261.339C254.74 262.165 256.287 263.15 257.747 264.28C262.969 268.302 266.891 274.09 268.931 280.789C270.752 286.866 270.979 293.395 269.586 299.611C269.875 299.401 270.166 299.185 270.448 298.97C275.812 294.939 280.756 290.098 284.48 284.161C287.692 279.144 289.747 273.324 290.465 267.213C291.178 260.538 289.68 253.974 287.005 248.017C284.052 241.645 280.33 235.753 275.944 230.505C271.538 225.111 266.557 220.339 261.111 216.294C260.988 216.201 260.902 216.06 260.87 215.899C260.839 215.738 260.864 215.57 260.94 215.428C260.999 215.3 261.1 215.202 261.223 215.157C261.285 215.139 261.35 215.137 261.413 215.151C261.476 215.166 261.535 215.195 261.587 215.239C262.259 215.739 262.926 216.243 263.584 216.762C269.068 221.089 274.049 226.159 278.412 231.854C282.627 237.344 286.464 243.444 289.031 250.107Z" fill="white"/>
<path d="M275.725 123.598C278.544 123.598 280.829 121.052 280.829 117.911C280.829 114.77 278.544 112.224 275.725 112.224C272.906 112.224 270.621 114.77 270.621 117.911C270.621 121.052 272.906 123.598 275.725 123.598Z" fill="#F1F1F1"/>
<path d="M199.805 160.829C202.624 160.829 204.909 158.283 204.909 155.142C204.909 152.001 202.624 149.455 199.805 149.455C196.986 149.455 194.701 152.001 194.701 155.142C194.701 158.283 196.986 160.829 199.805 160.829Z" fill="#F1F1F1"/>
<path d="M129.234 301.372H307.081C307.204 301.372 307.323 301.318 307.411 301.22C307.498 301.123 307.547 300.99 307.547 300.852C307.547 300.714 307.498 300.582 307.411 300.485C307.323 300.387 307.204 300.332 307.081 300.332H129.234C129.11 300.332 128.992 300.387 128.904 300.485C128.817 300.582 128.767 300.714 128.767 300.852C128.767 300.99 128.817 301.123 128.904 301.22C128.992 301.318 129.11 301.372 129.234 301.372Z" fill="#CBCBCB"/>
<path d="M287.454 28.635C287.688 26.7876 287.305 24.9088 286.378 23.3549C285.452 21.8009 284.046 20.6796 282.427 20.2035C280.808 19.7273 279.089 19.9295 277.595 20.7716C276.1 21.6137 274.935 23.0372 274.32 24.7724L259.889 43.208L264.123 56.3864L278.637 34.8451C279.584 35.1832 280.586 35.2857 281.573 35.1456C282.559 35.0054 283.506 34.6259 284.347 34.0338C285.187 33.4417 285.901 32.6515 286.438 31.7187C286.975 30.7859 287.322 29.7333 287.454 28.635Z" fill="#FFB7B7"/>
<path d="M227.632 100.368L275.538 43.3988L269.076 31.9518L208.99 88.5751L227.632 100.368Z" fill="#3F3D56"/>
<path d="M216.94 65.754C226.221 65.754 233.745 57.3707 233.745 47.0294C233.745 36.6881 226.221 28.3047 216.94 28.3047C207.659 28.3047 200.136 36.6881 200.136 47.0294C200.136 57.3707 207.659 65.754 216.94 65.754Z" fill="#2F2E41"/>
<path d="M218.291 36.4516C221.907 32.3657 226.283 29.2127 231.11 27.2145C234.209 25.9353 237.582 25.145 240.822 25.8714C244.062 26.5979 247.126 29.0952 248.029 32.6371C248.768 35.5334 248.005 38.6518 246.858 41.3782C245.711 44.1046 244.18 46.6328 243.253 49.4609C242.306 52.3466 242.022 55.45 242.425 58.4893C242.828 61.5287 243.905 64.4077 245.56 66.8652C247.215 69.3226 249.395 71.2806 251.901 72.5614C254.407 73.8422 257.161 74.4053 259.912 74.1994C256.729 74.675 253.794 76.3419 250.683 77.2291C247.572 78.1163 243.899 78.0562 241.587 75.5724C239.141 72.9445 239.092 68.6717 239.21 64.8876C239.386 59.2625 239.562 53.6373 239.738 48.0121C239.827 45.1433 239.904 42.1827 238.975 39.5051C238.047 36.8275 235.84 34.4829 233.264 34.5073C231.312 34.5257 229.584 35.8436 228.018 37.1433C226.452 38.443 224.795 39.8296 222.851 40.0229C220.906 40.2163 218.685 38.6126 218.831 36.4432L218.291 36.4516Z" fill="#2F2E41"/>
<path d="M153.116 172.756C151.503 173.256 149.781 173.078 148.277 172.258C146.774 171.437 145.592 170.031 144.957 168.304C144.322 166.578 144.277 164.652 144.831 162.892C145.385 161.131 146.499 159.658 147.963 158.752L162.48 140.4L174.759 143.356L157.489 162.204C157.914 163.206 158.136 164.3 158.14 165.408C158.144 166.516 157.93 167.612 157.513 168.618C157.097 169.624 156.487 170.516 155.727 171.231C154.967 171.946 154.076 172.467 153.116 172.756H153.116Z" fill="#FFB7B7"/>
<path d="M200.878 107.055L164.695 157.663L153.666 152.021L196.195 78.2433L200.878 107.055Z" fill="#3F3D56"/>
<path d="M172.007 259.872L163.384 259.721L164.421 292.471H172.006L172.007 259.872Z" fill="#FFB7B7"/>
<path d="M173.941 289.712L159.003 289.711H159.002C156.478 289.712 154.056 290.829 152.271 292.818C150.486 294.808 149.483 297.505 149.483 300.319V300.663L173.94 300.664L173.941 289.712Z" fill="#2F2E41"/>
<path d="M229.103 251.186L219.683 257.924L238.526 283.184L244.909 278.618L229.103 251.186Z" fill="#FFB7B7"/>
<path d="M245.199 275.131L232.629 284.124L232.629 284.124C230.504 285.644 229.009 288.042 228.471 290.791C227.933 293.539 228.398 296.413 229.761 298.781L229.929 299.071L250.51 284.348L245.199 275.131Z" fill="#2F2E41"/>
<path d="M232.459 151.18C232.459 151.18 211.529 73.7186 204.802 72.6718C198.076 71.625 187.238 92.5475 187.238 92.5475C173.186 112.525 158.697 177.235 158.697 177.235C158.697 177.235 182.851 178.92 200.508 189.387C218.166 199.855 239.003 188.857 239.003 188.857L232.459 151.18Z" fill="#3F3D56"/>
<path opacity="0.1" d="M232.459 151.18C232.459 151.18 211.529 73.7186 204.802 72.6718C198.076 71.625 189.991 92.7598 189.991 92.7598C182.989 125.008 158.697 177.235 158.697 177.235C158.697 177.235 182.851 178.92 200.508 189.387C218.166 199.855 239.003 188.857 239.003 188.857L232.459 151.18Z" fill="black"/>
<path d="M215.287 128.004V166.928L219.398 223.312L239.937 265.963L230.135 273.764L202.127 233.194L191.05 192.911L173.653 282.087L160.583 281.046L169.66 157.406L186.885 122.604L215.287 128.004Z" fill="#2F2E41"/>
<path d="M194.184 90.356C187.649 97.6378 193.717 105.44 193.717 105.44L186.249 124.164L215.656 133.007L225.933 81.8371L218.932 73.5151C204.928 72.995 204.92 72.6716 204.92 72.6716C202.467 75.347 194.184 90.356 194.184 90.356Z" fill="#6C63FF"/>
<path d="M227.118 76.536C225.782 75.4374 224.264 74.6451 222.652 74.2048C221.039 73.7646 219.364 73.6852 217.724 73.9712C216.084 74.2573 214.511 74.9031 213.097 75.8713C211.682 76.8395 210.454 78.1108 209.484 79.6116C202.091 91.0816 195.255 109.603 204.674 132.702C219.797 169.792 232.958 188.779 238.308 188.777C238.542 188.78 238.774 188.739 238.996 188.657C242.289 187.412 247.051 181.203 247.913 175.731C248.221 173.772 248.148 171.044 246.046 169.17C240.007 163.789 229.168 147.033 225.786 124.978C223.917 112.792 227.541 101.691 230.911 94.5249C232.334 91.5597 232.75 88.1223 232.083 84.8429C231.416 81.5634 229.711 78.6616 227.28 76.6693L227.118 76.536Z" fill="#3F3D56"/>
<path d="M217.804 63.9145C223.799 60.2631 226.002 51.8883 222.725 45.2088C219.448 38.5292 211.932 36.0744 205.938 39.7258C199.943 43.3771 197.74 51.752 201.017 58.4315C204.294 65.1111 211.81 67.5659 217.804 63.9145Z" fill="#FFB7B7"/>
<path d="M194.475 50.778H212.337L212.52 47.9205L213.436 50.778H216.186L216.549 45.1146L218.364 50.778H223.686V50.4974C223.682 46.5546 222.274 42.7745 219.772 39.9865C217.27 37.1985 213.878 35.6302 210.339 35.6258H207.821C204.283 35.6302 200.89 37.1985 198.388 39.9865C195.886 42.7745 194.479 46.5546 194.475 50.4974V50.778Z" fill="#2F2E41"/>
<path d="M220.987 61.0491L228.61 58.2931V37.6671H214.212L214.569 38.0636C219.528 43.5827 225.044 63.1635 220.987 61.0491Z" fill="#2F2E41"/>
</g>
<defs>
<clipPath id="clip0">
<rect width="381" height="323" fill="white"/>
</clipPath>
</defs>
</svg>
