<svg width="375" height="640" viewBox="0 0 375 640" fill="none" xmlns="http://www.w3.org/2000/svg">
<path fill-rule="evenodd" clip-rule="evenodd" d="M174.551 0.154668C247.136 3.81313 285.933 85.0487 345.198 127.117C405.448 169.884 496.472 179.9 524.235 248.372C552.16 317.246 517.702 396.994 480.771 461.488C448.589 517.689 389.86 548.779 333.722 581.071C283.689 609.85 232.146 633.837 174.551 637.629C113.678 641.636 44.6313 644.004 -0.609734 603.08C-45.0165 562.91 -31.0786 491.766 -49.6335 434.833C-68.2136 377.823 -116.648 329.285 -109.235 269.784C-101.241 205.627 -55.9386 153.793 -9.0682 109.261C43.8409 58.9911 101.661 -3.51916 174.551 0.154668Z" fill="#EBDAFF"/>
</svg>
