<svg width="432" height="349" viewBox="0 0 432 349" fill="none" xmlns="http://www.w3.org/2000/svg">
<g clip-path="url(#clip0)">
<path d="M320.061 199.382L234.269 87.8795C230.374 91.5847 225.574 94.1053 220.395 95.1659C204.244 98.4742 188.471 87.0029 185.165 69.5441C182.828 57.2027 187.352 45.1796 195.906 38.0192L166.654 0L0 148.139L153.407 347.521L320.061 199.382Z" fill="#F2F2F2"/>
<path d="M36.5822 348.537L363.086 348.017" stroke="#3F3D56" stroke-width="2" stroke-miterlimit="10"/>
<path d="M275.826 33.1934C279.455 33.1934 282.396 30.1338 282.396 26.3596C282.396 22.5854 279.455 19.5258 275.826 19.5258C272.197 19.5258 269.255 22.5854 269.255 26.3596C269.255 30.1338 272.197 33.1934 275.826 33.1934Z" stroke="#3F3D56" stroke-width="2" stroke-miterlimit="10"/>
<path d="M362.657 231.877C366.286 231.877 369.228 228.818 369.228 225.044C369.228 221.269 366.286 218.21 362.657 218.21C359.029 218.21 356.087 221.269 356.087 225.044C356.087 228.818 359.029 231.877 362.657 231.877Z" stroke="#3F3D56" stroke-width="2" stroke-miterlimit="10"/>
<path d="M76.0092 50.3293C79.638 50.3293 82.5797 47.2697 82.5797 43.4955C82.5797 39.7213 79.638 36.6617 76.0092 36.6617C72.3804 36.6617 69.4387 39.7213 69.4387 43.4955C69.4387 47.2697 72.3804 50.3293 76.0092 50.3293Z" stroke="#3F3D56" stroke-width="2" stroke-miterlimit="10"/>
<path d="M213.462 89.8683C226.819 89.8683 237.648 78.606 237.648 64.7132C237.648 50.8204 226.819 39.5581 213.462 39.5581C200.104 39.5581 189.276 50.8204 189.276 64.7132C189.276 78.606 200.104 89.8683 213.462 89.8683Z" fill="#F2F2F2"/>
<path d="M69.859 50.6572H177.003C182.173 50.6572 187.189 52.4868 191.227 55.8451C195.265 59.2035 198.085 63.8908 199.222 69.1365L253.359 318.889C253.95 321.613 253.96 324.438 253.39 327.167C252.819 329.896 251.682 332.462 250.057 334.685C248.433 336.908 246.36 338.735 243.985 340.037C241.609 341.339 238.989 342.085 236.307 342.222L126.163 347.867C120.265 348.169 114.463 346.229 109.839 342.409C105.215 338.589 102.086 333.149 101.035 327.106L70.3249 150.528L68.0402 151.207L62.1641 117.739L64.5158 117.127L55.9436 67.8382C55.5764 65.7271 55.6615 63.5577 56.1929 61.4847C56.7243 59.4117 57.6889 57.4862 59.0178 55.8453C60.3468 54.2045 62.0074 52.8888 63.8813 51.992C65.7552 51.0953 67.7963 50.6395 69.859 50.6572Z" fill="#3F3D56"/>
<path d="M162.897 56.0413H175.404C178.996 56.0413 182.48 57.3189 185.277 59.662C188.075 62.0051 190.017 65.2728 190.783 68.9226L242.748 316.637C243.047 318.063 243.047 319.54 242.747 320.966C242.447 322.392 241.855 323.734 241.011 324.9C240.167 326.067 239.091 327.03 237.856 327.724C236.621 328.418 235.257 328.826 233.856 328.922L124.068 336.406C120.971 336.617 117.907 335.634 115.462 333.646C113.017 331.658 111.361 328.802 110.811 325.625L66.4689 69.588C66.1819 67.9308 66.2481 66.2283 66.6628 64.6006C67.0775 62.973 67.8306 61.4598 68.869 60.1679C69.9073 58.876 71.2057 57.8369 72.6723 57.1238C74.139 56.4108 75.7382 56.0413 77.3572 56.0413H89.222C90.3703 56.0413 91.4866 56.435 92.3981 57.1615C93.3096 57.888 93.9653 58.9068 94.2639 60.0601C94.5274 61.0782 95.1063 61.9776 95.911 62.619C96.7156 63.2603 97.7012 63.6079 98.7149 63.6079H155.041C157.026 63.6079 158.938 62.8286 160.395 61.4257C161.851 60.0229 162.745 58.0999 162.897 56.0413L162.897 56.0413Z" fill="white"/>
<path d="M308.565 125.841C317.616 125.841 324.952 118.21 324.952 108.798C324.952 99.3848 317.616 91.7543 308.565 91.7543C299.515 91.7543 292.179 99.3848 292.179 108.798C292.179 118.21 299.515 125.841 308.565 125.841Z" fill="#2F2E41"/>
<path d="M326.244 322.37L329.361 336.264H321.791L318.674 320.517L326.244 322.37Z" fill="#9F616A"/>
<path d="M289.73 322.37V335.338L282.16 336.264V322.37H289.73Z" fill="#9F616A"/>
<path d="M328.47 175.094C328.47 175.094 327.579 195.008 326.689 196.398C325.798 197.787 317.783 217.702 317.783 217.702L313.775 204.734C313.775 204.734 320.009 194.082 319.119 188.061C318.228 182.041 318.789 174.632 318.789 174.632L328.47 175.094Z" fill="#9F616A"/>
<path d="M303.088 126.928C309.974 126.928 315.557 121.122 315.557 113.96C315.557 106.798 309.974 100.992 303.088 100.992C296.203 100.992 290.62 106.798 290.62 113.96C290.62 121.122 296.203 126.928 303.088 126.928Z" fill="#9F616A"/>
<path d="M313.33 115.35C313.33 115.35 312.885 133.875 316.002 136.654C319.119 139.432 298.19 137.117 298.19 137.117C298.19 137.117 302.643 124.149 299.081 121.37C295.518 118.592 313.33 115.35 313.33 115.35Z" fill="#9F616A"/>
<path d="M296.854 136.191C296.854 136.191 299.526 131.096 303.089 131.559C306.651 132.022 318.228 132.949 318.674 133.875C319.119 134.801 320.455 138.043 321.345 138.969C322.236 139.896 328.915 141.285 329.361 146.843C329.806 152.4 313.33 186.209 313.33 186.209C313.33 186.209 315.557 194.082 315.111 195.935C314.666 197.787 317.338 203.345 316.893 205.66C316.447 207.976 323.572 221.87 320.01 239.932V269.11C320.01 269.11 332.032 319.591 328.47 323.296C324.908 327.001 312.885 324.686 310.658 323.296C308.432 321.907 299.081 251.974 299.081 251.974L294.628 228.354L294.183 280.225C294.183 280.225 295.073 323.759 291.956 325.149C288.839 326.538 276.816 327.001 275.926 324.222C275.231 322.055 271.828 264.391 270.364 239.114C269.857 230.389 270.516 221.634 272.324 213.097C274.178 204.355 276.868 194.083 279.933 189.914C285.722 182.041 289.285 157.032 289.285 157.032L281.715 142.674C281.715 142.674 286.168 138.043 288.839 138.043C291.511 138.043 296.854 136.191 296.854 136.191Z" fill="#2F2E41"/>
<path d="M326.689 143.601L329.037 145.263C329.037 145.263 330.696 175.094 329.361 176.946C328.025 178.799 318.737 177.895 318.037 176.263C317.338 174.631 326.689 143.601 326.689 143.601Z" fill="#2F2E41"/>
<path d="M286.979 170.723C288.283 180.128 289.425 188.5 282.76 196.074C276.062 203.739 268.508 210.545 260.258 216.346C259.441 218.598 247.44 235.136 246.83 228.54C246.22 221.943 250.366 216.771 256.257 211.192C262.149 205.614 270.392 193.51 275.043 186.868C279.694 180.227 277.779 176.085 277.617 170.538C277.456 164.99 285.151 170.79 286.979 170.723Z" fill="#9F616A"/>
<path d="M282.16 327.834C282.16 327.834 281.714 333.022 280.379 334.411C279.043 335.801 275.48 337.653 275.926 342.748C276.371 347.842 279.265 348.074 279.265 348.074L279.043 346.916L280.379 347.379L280.601 348.074H293.069C293.069 348.074 293.292 343.211 292.847 340.895C292.401 338.58 292.401 327.464 291.066 327.927C289.73 328.391 286.167 328.854 285.277 330.706C284.386 332.559 281.714 331.91 282.16 327.834Z" fill="#2F2E41"/>
<path d="M327.579 327.834C327.579 327.834 328.025 333.022 329.361 334.411C330.696 335.801 334.259 337.653 333.813 342.748C333.368 347.842 330.474 348.074 330.474 348.074L330.696 346.916L329.361 347.379L329.138 348.074H316.67C316.67 348.074 316.447 343.211 316.892 340.895C317.338 338.58 317.338 327.464 318.674 327.927C320.009 328.391 323.572 328.854 324.462 330.706C325.353 332.559 328.025 331.91 327.579 327.834Z" fill="#2F2E41"/>
<path d="M287.949 141.285L281.715 142.674C281.715 142.674 281.715 152.863 279.933 157.032C278.152 161.2 275.035 170.926 276.371 171.389C277.707 171.852 290.175 178.336 291.066 174.631C291.956 170.926 294.183 141.285 287.949 141.285Z" fill="#2F2E41"/>
<path d="M326.318 103.401C335.368 103.401 342.704 95.7701 342.704 86.3574C342.704 76.9447 335.368 69.3141 326.318 69.3141C317.268 69.3141 309.931 76.9447 309.931 86.3574C309.931 95.7701 317.268 103.401 326.318 103.401Z" fill="#2F2E41"/>
<path d="M340.452 100.47C338.331 102.065 335.874 103.107 333.286 103.512C330.698 103.916 328.055 103.669 325.577 102.793C323.099 101.917 320.86 100.436 319.045 98.4753C317.23 96.5142 315.894 94.1297 315.147 91.5211C315.429 93.8588 316.175 96.1101 317.336 98.133C318.498 100.156 320.05 101.906 321.895 103.274C323.739 104.641 325.836 105.596 328.054 106.078C330.271 106.56 332.561 106.559 334.778 106.074C336.994 105.589 339.091 104.632 340.934 103.262C342.777 101.892 344.327 100.14 345.486 98.1156C346.645 96.0913 347.388 93.8391 347.668 91.501C347.948 89.163 347.759 86.79 347.113 84.5318C347.48 87.5656 347.055 90.6463 345.883 93.4507C344.711 96.255 342.835 98.6796 340.452 100.47Z" fill="#2F2E41"/>
<path d="M312.935 124.136C319.572 124.136 324.952 118.541 324.952 111.638C324.952 104.735 319.572 99.1398 312.935 99.1398C306.299 99.1398 300.918 104.735 300.918 111.638C300.918 118.541 306.299 124.136 312.935 124.136Z" fill="#2F2E41"/>
<path d="M302.83 115.615C308.713 115.615 313.481 111.736 313.481 106.951C313.481 102.166 308.713 98.2876 302.83 98.2876C296.948 98.2876 292.179 102.166 292.179 106.951C292.179 111.736 296.948 115.615 302.83 115.615Z" fill="#2F2E41"/>
<path d="M299.989 119.549C301.106 119.549 302.011 117.883 302.011 115.829C302.011 113.774 301.106 112.109 299.989 112.109C298.873 112.109 297.968 113.774 297.968 115.829C297.968 117.883 298.873 119.549 299.989 119.549Z" fill="#A0616A"/>
<path d="M160.006 181.594C158.043 182.021 156.507 181.667 155.399 180.531C154.287 179.396 153.516 177.567 153.084 175.044L151.357 164.946L153.75 164.426L155.485 174.57C155.805 176.44 156.283 177.723 156.919 178.422C157.555 179.123 158.442 179.35 159.58 179.102C160.717 178.855 161.463 178.282 161.816 177.383C162.172 176.484 162.187 175.084 161.862 173.183L160.127 163.038L162.539 162.514L164.266 172.611C164.695 175.12 164.559 177.143 163.856 178.68C163.151 180.218 161.867 181.189 160.006 181.594ZM171.286 178.891L168.272 161.266L170.66 160.747L173.675 178.372L171.286 178.891ZM179.599 177.083L176.584 159.458L178.996 158.933L181.6 174.16L186.099 173.181L186.509 175.579L179.599 177.083ZM193.62 155.724L193.852 155.674L204.425 171.681L201.671 172.28L199.735 169.122L192.547 170.686L191.792 174.43L189.126 175.01L193.62 155.724ZM194.6 160.81L194.069 163.412L193.092 168.053L198.384 166.902L195.975 163.025L194.642 160.801L194.6 160.81Z" fill="#6C63FF"/>
<path d="M124.275 198.633C119.806 199.566 115.575 199.447 111.582 198.275C107.581 197.062 104.199 194.957 101.438 191.959C98.6674 188.919 96.8377 185.27 95.9485 181.009C95.0593 176.749 95.2805 172.693 96.6122 168.841C97.9352 164.947 100.192 161.665 103.383 158.994C106.565 156.281 110.391 154.458 114.86 153.526C119.329 152.593 123.564 152.733 127.566 153.946C131.559 155.118 134.936 157.202 137.697 160.2C140.459 163.198 142.289 166.848 143.186 171.15C144.084 175.452 143.868 179.528 142.536 183.381C141.204 187.233 138.947 190.515 135.765 193.228C132.574 195.899 128.744 197.701 124.275 198.633ZM122.784 191.491C125.708 190.881 128.204 189.685 130.273 187.902C132.333 186.077 133.787 183.855 134.635 181.238C135.475 178.578 135.59 175.786 134.979 172.863C134.369 169.939 133.152 167.447 131.327 165.387C129.493 163.285 127.272 161.831 124.663 161.025C122.045 160.176 119.274 160.057 116.351 160.668C113.427 161.278 110.935 162.495 108.875 164.32C106.807 166.103 105.352 168.324 104.513 170.984C103.664 173.602 103.545 176.373 104.156 179.296C104.766 182.22 105.988 184.733 107.821 186.834C109.646 188.894 111.867 190.349 114.485 191.197C117.094 192.003 119.861 192.102 122.784 191.491Z" fill="#6C63FF"/>
<g clip-path="url(#clip1)">
<path d="M142.321 304.769L143.97 312.809L217.47 297.735L215.821 289.695C213.292 277.362 193.97 274.801 175.542 278.606C157.23 282.387 139.644 291.712 142.321 304.769Z" fill="#EBDAFF"/>
<path d="M149.921 281.277L145.305 271.761L140.109 285.873L142.367 296.881L174.786 290.232L172.528 279.224L153.723 283.081C152.166 283.4 150.592 282.656 149.921 281.277Z" fill="#EBDAFF"/>
<path opacity="0.54" d="M199.017 294.37L201.341 293.893L202.752 300.771L200.428 301.248L199.017 294.37Z" fill="black"/>
<path d="M174.429 274.598L167.394 276.041L168.993 283.838C169.717 287.366 173.17 289.64 176.704 288.915L177.982 288.653C181.515 287.928 183.795 284.479 183.072 280.95L181.473 273.154L174.429 274.598V274.598Z" fill="#7A4C32"/>
<path d="M192.866 237.963C192.866 237.963 197.6 237.856 198.659 243.019C199.593 247.572 196.629 250.052 193.298 250.735L190.767 238.394L192.866 237.963Z" fill="#7A4C32"/>
<path d="M143.061 248.178C143.061 248.178 138.667 249.943 139.726 255.106C140.66 259.658 144.36 260.772 147.691 260.088L145.16 247.747L143.061 248.178Z" fill="#7A4C32"/>
<path d="M161.034 209.283C141.353 213.319 139.492 230.382 144.104 252.869C148.885 276.186 164.403 279.289 174.948 277.127C185.338 274.996 198.573 266.182 193.754 242.686C189.141 220.191 180.715 205.246 161.034 209.283V209.283Z" fill="#9B643C"/>
<path d="M161.181 251.535C161.658 253.861 160.563 256.042 158.727 256.419C156.898 256.794 155.016 255.214 154.541 252.897C154.064 250.572 155.165 248.381 157.001 248.004C158.83 247.629 160.704 249.21 161.181 251.535" fill="#42312C"/>
<path d="M177.522 248.184C177.999 250.509 179.864 252.084 181.708 251.706C183.537 251.33 184.638 249.139 184.163 246.822C183.686 244.497 181.811 242.916 179.983 243.291C178.146 243.668 177.046 245.859 177.522 248.184" fill="#42312C"/>
<path d="M179.451 262.589L172.269 264.062L165.086 265.535C164.265 265.703 164.027 266.354 164.749 267.121C165.758 268.184 169.075 269.944 173.297 269.078C177.52 268.212 179.876 265.289 180.385 263.914C180.749 262.933 180.273 262.42 179.451 262.589V262.589Z" fill="#42312C"/>
<path d="M174.426 256.944C173.277 257.561 172.041 257.992 171.065 258.192C170.089 258.392 168.781 258.474 167.484 258.367C166.933 258.319 166.83 258.883 167.086 259.186C167.62 259.822 169.482 260.948 171.543 260.525C173.604 260.103 174.873 258.335 175.113 257.54C175.229 257.16 174.913 256.683 174.426 256.944V256.944Z" fill="#7A4C32"/>
<path d="M161.019 206.219C161.019 206.219 160.629 206.282 160.468 206.324C160.305 206.357 159.919 206.445 159.919 206.445C138.769 211.231 135.119 225.95 137.025 235.242C138.877 244.275 140.247 250.915 140.247 250.915C140.247 250.915 140.513 250.479 141.028 249.84C141.582 249.159 142.257 248.707 142.257 248.707L144.873 256.032L148.766 239.07C148.793 238.962 148.874 238.886 148.978 238.882L153.27 238.51C157.585 238.134 161.873 237.508 166.106 236.649L166.107 236.657C166.293 236.619 166.47 236.574 166.656 236.536C166.842 236.498 167.022 236.469 167.207 236.431L167.206 236.423C171.433 235.539 175.623 234.434 179.738 233.082L183.83 231.734C183.929 231.706 184.033 231.743 184.098 231.823L194.354 245.884L193.876 238.121C193.876 238.121 194.675 238.278 195.452 238.678C196.184 239.062 196.592 239.359 196.592 239.359C196.592 239.359 195.24 232.724 193.385 223.683C191.495 214.388 182.346 202.294 161.019 206.219V206.219Z" fill="#47352D"/>
<path d="M146.814 227.542C145.804 227.029 144.726 226.851 143.824 227.214C143.153 227.487 142.947 227.623 141.438 228.771C139.518 229.173 139.984 225.147 140.192 223.876C140.202 223.806 141.643 216.386 141.929 215.141C142.266 213.674 141.86 212.639 140.885 212.373C139.841 212.087 139.056 213.494 138.888 214.248C138.616 215.405 137.852 218.095 137.341 220.801C137.341 220.801 137.273 221.06 137.208 221.099C136.721 221.402 136.476 220.758 136.476 220.758C136.494 218.679 136.805 213.659 136.876 212.509C137.002 210.526 136.491 209.53 135.501 209.428C134.191 209.298 133.712 210.43 133.593 212.369C133.524 213.527 133.362 217.067 133.101 220.365C132.543 221.225 132.017 220.393 132.017 220.393C131.867 217.221 131.84 213.898 131.751 212.916C131.619 211.325 131.162 210.555 130.158 210.54C129.121 210.524 128.698 211.373 128.738 213.221C128.771 214.527 128.824 218.642 128.909 220.751C128.561 221.966 127.787 221.184 127.787 221.184C127.455 218.109 127.318 217.443 127.191 216.664C126.91 215.019 126.467 214.474 125.488 214.658C124.398 214.856 124.297 215.86 124.405 217.329C124.479 218.322 125.08 224.993 124.997 227.619C124.864 231.654 126.346 235.221 128.232 236.266C130.883 237.739 134.623 238.098 137.857 236.622C138.64 236.267 139.82 234.855 140.49 234.303C140.592 234.214 142.671 232.026 142.961 231.865C143.709 231.457 144.454 231.075 145.01 230.834C145.609 230.567 146.208 230.258 146.471 230.086C147.919 229.153 147.743 228.02 146.814 227.542V227.542Z" fill="#9B643C"/>
<path d="M141.145 233.643C141.145 233.643 139.645 235.145 139.516 238.806L127.34 239.872C127.34 239.872 125.207 234.193 125.091 229.769L141.145 233.643V233.643Z" fill="#9B643C"/>
<path d="M164.961 315.434L159.126 315.055C148.388 314.352 143.145 318.113 135.342 295.382L126.715 269.499C126.136 267.737 125.838 265.892 125.839 264.045L125.866 238.548C125.864 238.132 126.013 237.734 126.283 237.434C126.552 237.134 126.922 236.953 127.318 236.928L139.264 236.122C140.101 236.069 140.843 236.696 140.966 237.569L144.445 261.068C144.69 262.695 145.162 264.292 145.856 265.785L153.736 282.866L164.961 315.434V315.434Z" fill="#EBDAFF"/>
</g>
</g>
<defs>
<clipPath id="clip0">
<rect width="432" height="349" fill="white"/>
</clipPath>
<clipPath id="clip1">
<rect width="101.242" height="106.229" fill="white" transform="translate(106.802 212.009) rotate(-11.59)"/>
</clipPath>
</defs>
</svg>
